<svg xmlns="http://www.w3.org/2000/svg" viewBox="0 0 720 560"><defs><linearGradient id="a" x1="0" x2="1" y1="0" y2="1"><stop stop-color="#4ea5ff"/><stop offset="1" stop-color="#63f5df"/></linearGradient><filter id="s" x="-20%" y="-20%" width="140%" height="140%"><feDropShadow dx="0" dy="24" stdDeviation="24" flood-opacity=".25"/></filter></defs><rect x="55" y="70" width="610" height="400" rx="42" fill="#0d1b35" stroke="#243b66"/><circle cx="608" cy="125" r="55" fill="url(#a)" opacity=".25"/><g filter="url(#s)"><rect x="110" y="120" width="230" height="130" rx="24" fill="#12284e" stroke="#35598c"/><rect x="380" y="120" width="210" height="130" rx="24" fill="#12284e" stroke="#35598c"/><rect x="165" y="305" width="390" height="105" rx="24" fill="#12284e" stroke="#35598c"/></g><path d="M340 185h40M485 250v55M360 358H230" stroke="url(#a)" stroke-width="5" stroke-linecap="round"/><g fill="#dff6ff"><text x="135" y="165" font-family="Arial" font-size="18" font-weight="700">BPM / CRM</text><text x="135" y="198" font-family="Arial" font-size="38" font-weight="900">ELMA365</text><text x="405" y="165" font-family="Arial" font-size="18" font-weight="700">Custom software</text><text x="405" y="198" font-family="Arial" font-size="36" font-weight="900">API + Code</text><text x="205" y="360" font-family="Arial" font-size="18" font-weight="700">SQL · Security · Infrastructure</text></g><g fill="url(#a)"><circle cx="340" cy="185" r="8"/><circle cx="380" cy="185" r="8"/><circle cx="485" cy="250" r="8"/><circle cx="485" cy="305" r="8"/><circle cx="360" cy="358" r="8"/><circle cx="230" cy="358" r="8"/></g></svg>
